Coordinates
version=1
nRows=14
nColumns=46
inDegrees=yes

Units are S.I. units (second, meters, Newtons, ...)
Angles are in degrees.

endheader
time	pelvis_tilt	pelvis_list	pelvis_rotation	pelvis_tx	pelvis_ty	pelvis_tz	bb_angle	bb_tx	bb_ty	bb_tz	hip_flexion_r	hip_adduction_r	hip_rotation_r	knee_angle_r	knee_angle_r_beta	ankle_angle_r	subtalar_angle_r	mtp_angle_r	crank_angle_r	hip_flexion_l	hip_adduction_l	hip_rotation_l	knee_angle_l	knee_angle_l_beta	ankle_angle_l	subtalar_angle_l	mtp_angle_l	crank_angle_l	lumbar_extension	lumbar_bending	lumbar_rotation	arm_flex_r	arm_add_r	arm_rot_r	elbow_flex_r	pro_sup_r	wrist_flex_r	wrist_dev_r	arm_flex_l	arm_add_l	arm_rot_l	elbow_flex_l	pro_sup_l	wrist_flex_l	wrist_dev_l
      0.00500000	     -7.72923147	      7.62255811	      0.93059465	      0.04839218	      1.16482457	     -0.22206394	      0.00000000	      0.50000000	      0.00000000	      0.25000000	     28.85834424	    -10.29320589	      1.42027739	     24.08812063	      0.42041702	     -1.32058196	      0.07994217	      0.00000000	      0.00000000	     79.52467360	     -3.54895438	     -3.31954810	    109.70979877	      1.91479721	     -6.42831862	     -9.94617746	      0.00000000	      0.00000000	    -55.61724287	     -4.09197815	     -8.90306367	     89.31698996	     -4.17013069	     42.17958097	     25.17843536	     28.40916679	      0.00000000	      0.00000000	     89.71565964	     -6.47312332	     56.02843284	     16.93650099	     24.04180027	      0.00000000	      0.00000000
      0.01000000	     -7.74804915	      7.62855457	      0.92070560	      0.04836009	      1.16478241	     -0.22203416	      0.00000000	      0.50000000	      0.00000000	      0.25000000	     28.89349884	    -10.28531256	      1.45510520	     24.11004752	      0.42079971	     -1.35582212	      0.01257106	      0.00000000	      0.00000000	     79.54758158	     -3.56257156	     -3.32854667	    109.70965418	      1.91479469	     -6.42536566	     -9.95268747	      0.00000000	      0.00000000	    -55.59123589	     -4.06240710	     -8.81883412	     89.29912040	     -4.03705676	     41.37654782	     24.81421309	     30.18891966	      0.00000000	      0.00000000	     89.72015707	     -6.61489144	     55.40368751	     17.08813860	     23.21688805	      0.00000000	      0.00000000
      0.01500000	     -7.75807833	      7.62441197	      0.90401066	      0.04832742	      1.16476798	     -0.22200403	      0.00000000	      0.50000000	      0.00000000	      0.25000000	     28.92585274	    -10.26195551	      1.49150747	     24.13638064	      0.42125931	     -1.40722018	     -0.08193619	      0.00000000	      0.00000000	     79.56461324	     -3.59257360	     -3.32826462	    109.71528898	      1.91489303	     -6.38878035	     -9.90902331	      0.00000000	      0.00000000	    -55.61145321	     -4.07033512	     -8.74820904	     89.30827602	     -4.23503897	     42.02732363	     24.56650217	     32.05162863	      0.00000000	      0.00000000	     89.71616391	     -6.52391162	     54.25656540	     16.94969563	     25.27592454	      0.00000000	      0.00000000
      0.02000000	     -7.80278780	      7.58373431	      0.84223730	      0.04845317	      1.16465584	     -0.22217073	      0.00000000	      0.50000000	      0.00000000	      0.25000000	     28.99354268	    -10.23225322	      1.46818044	     24.15383652	      0.42156397	     -1.39415417	      0.31239174	      0.00000000	      0.00000000	     79.60519039	     -3.56206151	     -3.24128531	    109.70981864	      1.91479756	     -6.06269430	     -7.92550784	      0.00000000	      0.00000000	    -55.56940022	     -4.10403431	     -8.64146119	     89.27202302	     -4.14528108	     41.55479427	     24.54979666	     31.68722578	      0.00000000	      0.00000000	     89.71733817	     -6.41909106	     56.68938708	     17.05464227	     23.61767647	      0.00000000	      0.00000000
      0.02500000	     -7.92149791	      7.74763769	     -0.09046968	      0.05043799	      1.16463598	     -0.21882276	      0.00000000	      0.50000000	      0.00000000	      0.25000000	     29.19587255	     -9.76978069	      2.31411253	     24.12139907	      0.42099783	     -1.30703310	      0.21586268	      0.00000000	      0.00000000	     79.49785535	     -4.35406753	     -3.57661957	    109.60606465	      1.91298671	     -6.34431168	     -7.05558140	      0.00000000	      0.00000000	    -55.52034981	     -4.96538985	     -8.51655316	     89.26162233	     -3.93383386	     41.51222933	     24.42693082	     31.63995888	      0.00000000	      0.00000000	     89.70804715	     -6.31850334	     56.56247078	     16.64472373	     23.50394476	      0.00000000	      0.00000000
      0.03000000	     -7.82276936	      7.53963261	      0.90214655	      0.04837788	      1.16486848	     -0.22207161	      0.00000000	      0.50000000	      0.00000000	      0.25000000	     28.98841133	    -10.21335484	      1.34763106	     24.12836631	      0.42111944	     -1.44749255	      0.15612833	      0.00000000	      0.00000000	     79.61879244	     -3.66688678	     -3.23731281	    109.70441236	      1.91470320	     -6.24806471	     -9.50874906	      0.00000000	      0.00000000	    -55.60745850	     -4.03835135	     -8.51844883	     89.26875604	     -4.12300315	     41.72109460	     24.35368418	     31.61483070	      0.00000000	      0.00000000	     89.71793327	     -6.22937140	     56.57813375	     17.09303097	     23.51478395	      0.00000000	      0.00000000
      0.03500000	     -7.67967950	      7.61222735	      0.89423527	      0.04832364	      1.16524438	     -0.22220103	      0.00000000	      0.50000000	      0.00000000	      0.25000000	     28.81375392	    -10.30407009	      1.32543648	     24.04104468	      0.41959539	     -1.50850184	      0.24625307	      0.00000000	      0.00000000	     79.44110855	     -3.60577357	     -3.36139584	    109.67765098	      1.91423613	     -6.36139298	    -10.10215337	      0.00000000	      0.00000000	    -55.87611612	     -4.03711135	     -8.53399696	     89.23298343	     -4.21802435	     41.04262606	     24.92974018	     32.13307790	      0.00000000	      0.00000000	     89.71463883	     -6.52769797	     54.81933185	     18.02370795	     24.33996029	      0.00000000	      0.00000000
      0.04000000	     -7.81940680	      7.66929755	      0.90991310	      0.04825865	      1.16503845	     -0.22225327	      0.00000000	      0.50000000	      0.00000000	      0.25000000	     29.03694190	    -10.38356003	      1.31317598	     24.16418725	      0.42174463	     -1.36945304	      0.43609297	      0.00000000	      0.00000000	     79.58730349	     -3.56968694	     -3.41480774	    109.65908318	      1.91391206	     -6.39214994	    -10.18897230	      0.00000000	      0.00000000	    -55.68894007	     -4.08041877	     -8.60965850	     89.27686389	     -3.87424662	     41.57618265	     23.91665784	     32.40275489	      0.00000000	      0.00000000	     89.71233348	     -6.31705823	     53.10423528	     17.47395103	     24.79640963	      0.00000000	      0.00000000
      0.04500000	     -7.82313016	      7.65111851	      0.90142740	      0.04826651	      1.16503601	     -0.22228935	      0.00000000	      0.50000000	      0.00000000	      0.25000000	     29.04801425	    -10.37312596	      1.31141835	     24.16938949	      0.42183542	     -1.34400618	      0.53701417	      0.00000000	      0.00000000	     79.58900136	     -3.57554528	     -3.39227522	    109.68038356	      1.91428382	     -6.31652098	    -10.10406483	      0.00000000	      0.00000000	    -55.71335969	     -4.07282667	     -8.53564152	     89.29204199	     -3.91450991	     42.06784531	     23.76537770	     32.50223300	      0.00000000	      0.00000000	     89.70914123	     -6.16904313	     52.21203430	     17.48599738	     25.02051419	      0.00000000	      0.00000000
      0.05000000	     -7.84717409	      7.64635374	      0.91483532	      0.04826238	      1.16504418	     -0.22232574	      0.00000000	      0.50000000	      0.00000000	      0.25000000	     29.07094655	    -10.37039124	      1.32350104	     24.15511812	      0.42158634	     -1.39478454	      0.45786131	      0.00000000	      0.00000000	     79.60944244	     -3.54707090	     -3.33616107	    109.67371017	      1.91416735	     -6.30366873	     -9.93901621	      0.00000000	      0.00000000	    -55.69427673	     -4.05857130	     -8.44175912	     89.31443320	     -4.39896684	     44.10735699	     23.70477535	     33.93961634	      0.00000000	      0.00000000	     89.71416395	     -6.34101513	     53.44879361	     17.28360317	     26.67162039	      0.00000000	      0.00000000
      0.05500000	     -7.86238975	      7.64359116	      0.92516864	      0.04823661	      1.16504976	     -0.22236361	      0.00000000	      0.50000000	      0.00000000	      0.25000000	     29.09807657	    -10.37925043	      1.31265615	     24.17274355	      0.42189396	     -1.36154198	      0.44233009	      0.00000000	      0.00000000	     79.61430666	     -3.53233880	     -3.33592636	    109.66324853	      1.91398476	     -6.32616342	     -9.99854344	      0.00000000	      0.00000000	    -55.69980430	     -4.01795306	     -8.41290858	     89.28796690	     -4.11418870	     43.51916732	     23.84720085	     31.98561910	      0.00000000	      0.00000000	     89.72009365	     -6.41480354	     55.27524125	     17.57958947	     24.19401657	      0.00000000	      0.00000000
      0.06000000	     -7.84640516	      7.69164917	      0.95918632	      0.04824990	      1.16517615	     -0.22240970	      0.00000000	      0.50000000	      0.00000000	      0.25000000	     29.07598091	    -10.45667261	      1.27120313	     24.15816313	      0.42163949	     -1.33976798	      0.50916263	      0.00000000	      0.00000000	     79.56423375	     -3.46703760	     -3.38387911	    109.63484166	      1.91348896	     -6.37530571	    -10.05767237	      0.00000000	      0.00000000	    -55.79001721	     -4.03126005	     -8.45424058	     89.30717916	     -3.91678497	     43.05707786	     23.58430819	     32.17084540	      0.00000000	      0.00000000	     89.71169460	     -6.24098105	     53.10120243	     17.91289112	     24.71314218	      0.00000000	      0.00000000
      0.06500000	     -7.86471377	      7.66165999	      0.96208023	      0.04823956	      1.16513424	     -0.22240258	      0.00000000	      0.50000000	      0.00000000	      0.25000000	     29.09316667	    -10.42221990	      1.29010078	     24.13200638	      0.42118297	     -1.36448233	      0.53772075	      0.00000000	      0.00000000	     79.58058874	     -3.47567870	     -3.34768179	    109.64313580	      1.91363372	     -6.47494607	    -10.02261065	      0.00000000	      0.00000000	    -55.77187296	     -4.02134154	     -8.27911118	     89.32886605	     -4.38153407	     45.18206049	     23.98192075	     30.54317697	      0.00000000	      0.00000000	     89.71483632	     -6.13962300	     53.81321500	     17.89636709	     24.05275227	      0.00000000	      0.00000000
      0.07000000	     -7.54750823	      7.59912503	      0.93171682	      0.04826295	      1.16586682	     -0.22222586	      0.00000000	      0.50000000	      0.00000000	      0.25000000	     28.58406558	    -10.33252362	      1.29547495	     23.78260132	      0.41508470	     -1.51857471	      0.57086159	      0.00000000	      0.00000000	     79.18280552	     -3.52349999	     -3.35822519	    109.61593087	      1.91315891	     -6.55030489	    -10.38077738	      0.00000000	      0.00000000	    -56.34691740	     -3.94217818	     -8.19437585	     89.26075046	     -4.45965172	     43.00890006	     25.34404614	     31.43849301	      0.00000000	      0.00000000	     89.69615173	     -6.48814163	     50.84129849	     19.78637468	     25.42266313	      0.00000000	      0.00000000
